<svg xmlns="http://www.w3.org/2000/svg" viewBox="0 0 100 100" role="img" aria-label="最も見たジャンル">
  <path fill="#111" d="M50 82c-2.6-2.2-5-4.2-7.3-6.2C24 60 14 49.9 14 36.8 14 27.6 21.5 20 30.8 20c6.7 0 12.7 3.8 15.6 9.7h7.3C56.5 23.8 62.5 20 69.2 20 78.5 20 86 27.6 86 36.8c0 13.1-10 23.2-28.7 39-2.3 2-4.7 4-7.3 6.2z"/>
  <ellipse cx="69" cy="33.5" rx="8.2" ry="4.8" transform="rotate(28 69 33.5)" fill="#fff"/>
  <ellipse cx="76.4" cy="40.5" rx="3.8" ry="2.6" transform="rotate(28 76.4 40.5)" fill="#fff"/>
</svg>
